<svg width="325" height="325" viewBox="0 0 325 325" fill="none" xmlns="http://www.w3.org/2000/svg">
<path d="M12.4674 9.33057H312.108C314.123 9.33057 315.756 10.9637 315.756 12.9782V312.619C315.756 314.634 314.123 316.267 312.108 316.267H12.4674C10.453 316.267 8.81982 314.634 8.81982 312.619V12.9782C8.81982 10.9636 10.4529 9.33057 12.4674 9.33057Z" fill="#BBD1EA" stroke="#507DBC" stroke-width="17"/>
<path d="M281.446 50.5905H43.1302C36.3997 50.5905 30.9436 56.0466 30.9436 62.777V134.542C30.9436 141.273 36.3997 146.729 43.1302 146.729H281.446C288.176 146.729 293.632 141.273 293.632 134.542V62.777C293.632 56.0466 288.176 50.5905 281.446 50.5905Z" fill="#507DBC"/>
<path d="M281.446 50.5905H43.1302C36.3997 50.5905 30.9436 56.0466 30.9436 62.777V134.542C30.9436 141.273 36.3997 146.729 43.1302 146.729H281.446C288.176 146.729 293.632 141.273 293.632 134.542V62.777C293.632 56.0466 288.176 50.5905 281.446 50.5905Z" stroke="#507DBC"/>
<path d="M281.446 178.868H43.1302C36.3997 178.868 30.9436 184.324 30.9436 191.055V262.82C30.9436 269.551 36.3997 275.007 43.1302 275.007H281.446C288.176 275.007 293.632 269.551 293.632 262.82V191.055C293.632 184.324 288.176 178.868 281.446 178.868Z" fill="#507DBC"/>
<path d="M281.446 178.868H43.1302C36.3997 178.868 30.9436 184.324 30.9436 191.055V262.82C30.9436 269.551 36.3997 275.007 43.1302 275.007H281.446C288.176 275.007 293.632 269.551 293.632 262.82V191.055C293.632 184.324 288.176 178.868 281.446 178.868Z" stroke="#507DBC"/>
<path d="M139.48 63.4445H43.7329V77.4147H139.48V63.4445Z" fill="white"/>
<path d="M139.48 63.4445H43.7329V77.4147H139.48V63.4445Z" stroke="#507DBC"/>
<path d="M139.48 91.9146H43.7329V105.885H139.48V91.9146Z" fill="white"/>
<path d="M139.48 91.9146H43.7329V105.885H139.48V91.9146Z" stroke="#507DBC"/>
<path d="M139.48 119.905H43.7329V133.875H139.48V119.905Z" fill="white"/>
<path d="M139.48 119.905H43.7329V133.875H139.48V119.905Z" stroke="#507DBC"/>
<path d="M139.48 191.722H43.7329V205.693H139.48V191.722Z" fill="white"/>
<path d="M139.48 191.722H43.7329V205.693H139.48V191.722Z" stroke="#507DBC"/>
<path d="M139.48 220.192H43.7329V234.163H139.48V220.192Z" fill="white"/>
<path d="M139.48 220.192H43.7329V234.163H139.48V220.192Z" stroke="#507DBC"/>
<path d="M139.48 248.183H43.7329V262.153H139.48V248.183Z" fill="white"/>
<path d="M139.48 248.183H43.7329V262.153H139.48V248.183Z" stroke="#507DBC"/>
</svg>
